<?xml version="1.0" standalone="no"?>
<!DOCTYPE svg PUBLIC "-//W3C//DTD SVG 20010904//EN"
 "http://www.w3.org/TR/2001/REC-SVG-20010904/DTD/svg10.dtd">
<svg version="1.0" xmlns="http://www.w3.org/2000/svg"
 width="372.000000pt" height="372.000000pt" viewBox="0 0 372.000000 372.000000"
 preserveAspectRatio="xMidYMid meet">
<metadata>
Created by potrace 1.14, written by Peter Selinger 2001-2017
</metadata>
<g transform="translate(0.000000,372.000000) scale(0.100000,-0.100000)"
fill="#000000" stroke="none">
<path d="M1999 3670 c-5 -3 -11 -134 -14 -290 -3 -157 -7 -303 -9 -325 -3 -22
-7 -92 -11 -155 -7 -127 -29 -306 -45 -360 -5 -19 -10 -50 -10 -68 0 -18 -4
-41 -9 -50 -5 -10 -17 -62 -26 -117 -9 -55 -25 -120 -35 -145 -10 -25 -21 -60
-24 -78 -3 -19 -12 -48 -20 -65 -8 -18 -29 -70 -46 -117 -40 -104 -69 -168
-110 -240 -18 -30 -47 -82 -65 -116 -40 -71 -97 -159 -125 -192 -11 -13 -20
-28 -20 -34 0 -10 -61 -91 -89 -118 -9 -9 -51 -55 -95 -103 l-78 -87 7 -58 c4
-31 9 -73 11 -92 9 -72 24 -70 116 16 85 81 171 144 195 144 7 0 13 4 13 8 0
14 98 52 209 82 75 20 204 36 236 29 17 -4 53 -7 82 -8 29 0 67 -7 85 -15 18
-8 57 -22 87 -31 94 -29 223 -123 302 -222 88 -109 239 -340 239 -364 -1 -19
-16 -36 -87 -97 -137 -117 -361 -213 -526 -226 -30 -3 -70 -8 -89 -11 -86 -16
-357 29 -447 74 -20 10 -47 22 -60 26 -50 15 -261 196 -261 223 0 5 -11 20
-24 34 -84 91 -159 306 -208 598 -15 87 -19 1712 -5 1727 5 4 41 8 80 8 65 0
72 2 72 20 0 20 -7 20 -595 20 -522 0 -595 -2 -595 -15 0 -12 18 -16 78 -20
54 -3 81 -10 87 -20 6 -9 10 -265 10 -640 0 -561 2 -641 20 -785 11 -88 24
-178 29 -200 28 -120 76 -257 109 -315 5 -8 20 -37 33 -65 13 -27 30 -58 37
-67 8 -9 21 -30 30 -46 37 -65 92 -132 182 -222 101 -101 119 -116 178 -153
20 -14 43 -32 51 -41 7 -9 17 -16 22 -16 4 0 29 -13 56 -30 62 -38 246 -114
343 -141 232 -65 313 -74 645 -74 257 0 288 2 375 23 52 13 99 26 105 31 5 4
33 16 60 26 96 35 246 128 313 194 l65 64 19 -23 c10 -12 18 -30 18 -40 0 -10
6 -23 14 -29 8 -6 24 -35 36 -64 41 -96 43 -97 202 -97 l139 0 -16 30 c-9 17
-19 30 -23 30 -4 0 -20 24 -36 53 -16 28 -42 68 -58 87 -15 19 -28 38 -28 43
0 9 -43 68 -75 103 -12 12 -27 35 -35 51 -8 15 -39 66 -70 112 -30 47 -63 98
-74 115 -28 47 -180 229 -244 293 -71 71 -170 141 -224 160 -22 7 -54 21 -72
30 -77 40 -175 56 -335 54 -188 -2 -245 -15 -374 -81 -54 -27 -101 -50 -103
-50 -2 0 26 36 61 80 64 79 103 135 135 195 9 17 33 59 54 94 20 35 50 96 67
135 16 39 36 86 44 104 8 18 15 38 15 44 0 6 15 49 34 97 19 47 43 118 54 156
40 144 86 330 97 395 3 19 8 46 10 60 11 53 13 68 20 153 5 60 11 87 18 84 7
-2 13 -21 15 -43 2 -34 8 -85 38 -309 3 -21 17 -89 31 -150 14 -60 29 -134 34
-163 9 -50 75 -251 132 -402 24 -62 107 -239 127 -270 6 -8 24 -44 42 -80 17
-36 39 -73 47 -83 9 -11 27 -38 41 -62 25 -44 109 -166 119 -175 4 -3 24 -32
46 -65 22 -33 50 -71 63 -85 12 -14 22 -29 22 -33 0 -5 13 -26 29 -46 16 -20
45 -63 64 -96 20 -33 49 -72 65 -87 16 -15 36 -42 45 -60 16 -34 71 -114 107
-158 35 -41 170 -241 170 -251 0 -5 7 -9 15 -9 7 0 91 -1 184 -2 94 -1 172 2
173 6 3 12 -77 127 -136 195 -26 31 -60 74 -73 95 -14 22 -34 49 -45 60 -11
12 -27 32 -36 46 -9 14 -27 36 -40 50 -38 41 -172 226 -172 238 0 4 -17 25
-38 47 -35 37 -88 108 -152 205 -14 21 -56 83 -93 139 -67 100 -118 187 -156
267 -11 23 -31 60 -45 83 -14 22 -26 46 -26 52 0 6 -6 17 -14 25 -8 7 -22 35
-31 61 -10 27 -33 84 -52 128 -30 69 -53 131 -95 260 -6 17 -16 46 -23 65 -7
19 -15 55 -18 80 -3 25 -13 62 -21 82 -9 21 -16 48 -16 61 0 14 -7 44 -15 67
-8 23 -19 83 -25 134 -6 50 -15 109 -20 131 -5 22 -11 67 -15 100 -3 33 -8 80
-12 105 -3 25 -5 55 -4 67 1 13 -2 47 -8 75 -11 57 -17 155 -26 423 -4 94 -8
177 -11 185 -3 12 -28 15 -145 15 -77 0 -145 -2 -150 -5z"/>
<path d="M3027 2885 c-8 -20 -3 -22 96 -30 l88 -7 -5 -727 c-3 -399 -8 -755
-11 -791 -7 -74 -28 -162 -55 -237 l-19 -51 27 -37 c49 -68 83 -97 99 -84 42
35 133 301 148 434 3 22 10 65 15 95 7 35 12 301 13 722 1 366 5 669 9 673 4
4 38 9 75 12 85 6 94 9 87 28 -9 22 -559 23 -567 0z"/>
</g>
</svg>
